<?xml version="1.0" standalone="no"?>
<!DOCTYPE svg PUBLIC "-//W3C//DTD SVG 1.1//EN" "http://www.w3.org/Graphics/SVG/1.1/DTD/svg11.dtd" >
<svg xmlns="http://www.w3.org/2000/svg">
<metadata>Generated by IcoMoon</metadata>
<defs>
<font id="ds-icon" horiz-adv-x="1024">
<font-face units-per-em="1024" ascent="960" descent="-64" />
<missing-glyph horiz-adv-x="1024" />
<glyph unicode="&#x20;" horiz-adv-x="512" d="" />
<glyph unicode="&#xe900;" glyph-name="youtube" horiz-adv-x="1152" d="M1099.31 711.834c-12.562 47.3-49.574 84.552-96.568 97.194-85.18 22.972-426.742 22.972-426.742 22.972s-341.56 0-426.742-22.972c-46.994-12.644-84.006-49.894-96.568-97.194-22.824-85.734-22.824-264.61-22.824-264.61s0-178.876 22.824-264.61c12.562-47.3 49.574-83 96.568-95.642 85.182-22.972 426.742-22.972 426.742-22.972s341.56 0 426.742 22.972c46.994 12.642 84.006 48.342 96.568 95.642 22.824 85.734 22.824 264.61 22.824 264.61s0 178.876-22.824 264.61zM464.29 284.818v324.812l285.478-162.41-285.478-162.402z" />
<glyph unicode="&#xe901;" glyph-name="instagram" horiz-adv-x="896" d="M448.2 678c-127.2 0-229.8-102.6-229.8-229.8s102.6-229.8 229.8-229.8 229.8 102.6 229.8 229.8-102.6 229.8-229.8 229.8zM448.2 298.8c-82.2 0-149.4 67-149.4 149.4s67 149.4 149.4 149.4 149.4-67 149.4-149.4-67.2-149.4-149.4-149.4zM741 687.4c0-29.8-24-53.6-53.6-53.6-29.8 0-53.6 24-53.6 53.6s24 53.6 53.6 53.6 53.6-24 53.6-53.6zM893.2 633c-3.4 71.8-19.8 135.4-72.4 187.8-52.4 52.4-116 68.8-187.8 72.4-74 4.2-295.8 4.2-369.8 0-71.6-3.4-135.2-19.8-187.8-72.2s-68.8-116-72.4-187.8c-4.2-74-4.2-295.8 0-369.8 3.4-71.8 19.8-135.4 72.4-187.8s116-68.8 187.8-72.4c74-4.2 295.8-4.2 369.8 0 71.8 3.4 135.4 19.8 187.8 72.4 52.4 52.4 68.8 116 72.4 187.8 4.2 74 4.2 295.6 0 369.6zM797.6 184c-15.6-39.2-45.8-69.4-85.2-85.2-59-23.4-199-18-264.2-18s-205.4-5.2-264.2 18c-39.2 15.6-69.4 45.8-85.2 85.2-23.4 59-18 199-18 264.2s-5.2 205.4 18 264.2c15.6 39.2 45.8 69.4 85.2 85.2 59 23.4 199 18 264.2 18s205.4 5.2 264.2-18c39.2-15.6 69.4-45.8 85.2-85.2 23.4-59 18-199 18-264.2s5.4-205.4-18-264.2z" />
<glyph unicode="&#xe902;" glyph-name="facebook-f" horiz-adv-x="640" d="M558.28 384l28.44 185.32h-177.82v120.26c0 50.7 24.84 100.12 104.48 100.12h80.84v157.78s-73.36 12.52-143.5 12.52c-146.44 0-242.16-88.76-242.16-249.44v-141.24h-162.78v-185.32h162.78v-448h200.34v448z" />
<glyph unicode="&#xe904;" glyph-name="close" d="M813.201 237.201c24.998-24.998 24.998-65.498 0-90.5-12.399-12.497-28.8-18.697-45.201-18.697s-32.759 6.246-45.239 18.748l-210.761 210.65-210.74-210.598c-12.5-12.599-28.88-18.799-45.26-18.799s-32.74 6.199-45.25 18.799c-25 24.998-25 65.498 0 90.5l210.8 210.799-210.8 210.7c-25 25-25 65.5 0 90.5s65.5 25 90.5 0l210.75-210.9 210.799 210.8c25.003 25 65.502 25 90.5 0 25.003-25 25.003-65.5 0-90.5l-210.799-210.8 210.701-210.701z" />
<glyph unicode="&#xe90b;" glyph-name="user" d="M512 960c-282.8 0-512-229.2-512-512s229.2-512 512-512c282.799 0 512 229.201 512 512s-229.201 512-512 512zM512 704c79.539 0 144-64.48 144-144 0-79.518-64.401-144-144-144-79.518 0-144 64.482-144 144 0 79.52 64.401 144 144 144zM512 64c-105.86 0-201.8 43.059-271.4 112.58 32.4 83.618 112.4 143.42 207.4 143.42h128c95.078 0 175.078-59.759 207.398-143.42-69.598-69.581-165.598-112.58-271.398-112.58z" />
<glyph unicode="&#xe90e;" glyph-name="pin" d="M464.6-38.4c-104.4 128.401-336.6 439.599-336.6 614.4 0 212.080 171.92 384 384 384 212.002 0 384-171.92 384-384 0-174.801-234.001-485.999-336.602-614.4-24.598-30.601-70.199-30.601-94.799 0zM512 448c70.601 0 128 57.399 128 128s-57.399 128-128 128c-70.6 0-128-57.4-128-128s57.4-128 128-128z" />
<glyph unicode="&#xe90f;" glyph-name="newsletter" d="M512 125.794c-32.759 0-65.762 8.201-93.76 30.242l-418.24 302.161v-426.202c0-53.001 43-96 96-96h832c53.001 0 96 42.999 96 94.199v428.002l-418.202-302.204c-27.998-19.998-60.996-30.199-93.798-30.199zM987.2 633.996c-17.6 14-34.402 27-59.2 45.8v88.24c0 53-42.999 96-96 96l-154.999-0.003c-6.251 4.5-11.75 8.5-18.249 13-33.553 24.703-100.151 83.71-146.752 82.96-46.4 0.75-113.2-58.256-146.8-82.997-6.5-4.5-12-8.5-18.25-13h-154.95c-53 0-96-43-96-96v-88.24c-24.74-18.76-41.5-31.76-59.24-45.76-23.26-18-36.76-46-36.76-75.6v-21.24l192-138.739v369.579h640v-369.4l192 138.74v21.060c0 29.6-13.402 57.6-36.8 75.6zM352 449.796h320c17.673 0 32 14.327 32 30.199 0 17.677-14.327 32-32 32h-320c-17.672 0-32-14.323-32-32 0-17.6 14.4-30.199 32-30.199zM352 577.796h320c17.673 0 32 14.328 32 32 0 17.676-14.327 30.2-32 30.2h-320c-17.672 0-32-14.324-32-30.2 0-19.4 14.4-32 32-32z" />
<glyph unicode="&#xe910;" glyph-name="play" d="M1024 448c0-282.799-229.201-512-512-512s-512 229.201-512 512c0 282.8 229.2 512 512 512s512-229.2 512-512zM352 624v-352c0-17.399 9.4-33.399 24.6-41.801 15-8.597 33.6-8.201 48.4 0.802l287.998 176c14.204 8.798 23.002 24.196 23.002 40.998s-8.798 32.201-23.002 40.998l-287.998 176.002c-14.8 10.8-33.4 9.4-48.4 0.8-15.2-8.4-24.6-24.4-24.6-41.8z" />
<glyph unicode="&#xe911;" glyph-name="bell" d="M576 896v-38.4c146.001-29.66 256-158.8 256-313.6v-37.602c0-94.199 34.598-184.798 96.998-255.198l14.801-16.602c16.802-18.999 21.001-45.798 10.603-68.8-10.402-22.997-33.203-37.798-58.402-37.798h-768c-25.2 0-48.058 14.801-58.382 37.798-10.324 23.002-6.195 49.801 10.55 68.8l14.832 16.602c62.48 70.4 97 160.998 97 255.198v37.602c0 154.8 108.2 283.94 256 313.6v38.4c0 35.34 28.6 64 64 64s64-28.66 64-64zM512-64c-34 0-66.6 13.402-90.6 37.402s-37.4 58.398-37.4 90.598h256c0-32.201-13.402-66.598-37.402-90.598s-58.398-37.402-90.598-37.402z" />
<glyph unicode="&#xe912;" glyph-name="phone" d="M1022.4 186.001l-46.498-201.6c-6.532-28.501-31.582-48.439-60.924-48.439-504.578 0.038-914.978 410.436-914.978 915.037 0 29.32 19.938 54.4 48.44 60.9l201.6 46.5c29.36 6.804 59.36-8.436 71.56-36.24l93.040-217c10.876-25.56 3.54-55.34-17.96-72.9l-107.68-86.46c67.96-138.439 180.521-250.998 319-319l88.158 107.601c17.378 21.559 47.381 29.018 72.943 17.95l216.998-93.022c26.099-13.73 43.102-44.13 36.301-73.327z" />
<glyph unicode="&#xe921;" glyph-name="magnifying-glass-plus" d="M1000.6 72.6l-239.4 239.4c54.44 80.82 81.3 181.8 66.92 289.4-24.46 183.1-174.56 332-357.8 355.2-272.4 34.48-501.4-194.56-466.8-466.8 23.2-183.28 172.14-333.4 355.2-357.8 107.62-14.382 208.6 12.47 289.4 66.92l239.4-239.4c31.24-31.24 81.9-31.24 113.14-0.001 31.14 31.081 31.14 81.881-0.060 113.081zM576 496h-113.8v-112c0-26.52-21.48-48-46.2-48-26.6 0-48 21.4-48 48v112h-113.8c-24.8 0-46.2 21.4-46.2 48s21.48 48 46.2 48h113.8v112c0 26.52 21.48 48 46.2 48s48-21.4 48-48v-112h112c28.4 0 49.8-21.4 49.8-48s-21.4-48-48-48z" />
<glyph unicode="&#xe926;" glyph-name="hand-holding-dollar" horiz-adv-x="1152" d="M1136.4 287.4c-26.24 35.62-76.28 43.32-111.86 16.938l-239.4-176.34h-241.2c-17.496 0-30.2 14.5-30.2 31.98 0 17.5 14.5 32 30.2 32h156.5c30.2 0 61.5 21.76 66.74 53.24 6.5 40-24.24 74.76-63.24 74.76h-321.74c-52.2 0-106.24-18.5-148.24-52.5l-93-75.48-110.76 1.802c-15.698 0-30.2-16.4-30.2-33.8v-191.96c0-17.64 14.502-32.040 30.2-32.040h692.2c44.060 0 87.84 14.376 123.4 40.54l270.2 199.040c39 26.22 46.6 76.22 20.4 111.82zM558.6 610c-15.2 2.2-35.2 9.4-52.8 15.8l-9.8 3.4c-25 10.6-52.4-4.2-61.2-27.4s4.242-52.4 29.18-61.28l9.31-3.312c16.972-6.122 35.76-12.19 54.78-16.624v-24.584c0-26.5 21.46-48 47.96-48s48 21.5 48 48v20.8c50.54 11.446 85.76 43.7 92.2 91.44 17.376 100.1-77.78 127.32-128.84 141.9l-10.59 3.66c-52.6 14.92-49.6 21.36-48.2 29.58 2.312 13.532 30.6 20.12 64.42 14.782 9.876-1.563 22.74-5.094 39.3-10.844 25.060-8.562 52.42 4.624 61.040 29.68s-4.618 52.38-29.68 61.060c-15.204 5.254-27.84 8.716-39.64 11.442v22.5c0 26.5-21.5 48-48 48s-47.96-21.5-47.96-48v-21.040c-50.48-11.42-85.88-43.46-95.88-91.22-15.4-98.94 81.2-127.34 117.6-138.14l12.996-3.75c63.32-18.124 62.3-23.78 60.68-33.28-2.276-13.57-30.476-20.17-64.876-14.57z" />
<glyph unicode="&#xe927;" glyph-name="graduation-cap" horiz-adv-x="1280" d="M1246.2 686.2l-565.4 202.4c-27.46 9.82-57.4 9.82-84.86 0l-563.84-202.4c-19.224-7-32.1-25.4-32.1-46.2s12.876-39.3 32.1-46.18l120.040-43.020c-23.78-31.6-40.52-68.32-49.1-107.9-22.94-9.7-39.040-32.5-39.040-58.9 0-19.906 9.628-36.98 23.88-48.72l-49.66-298c-3.26-19.48 11.78-37.28 31.56-37.28h116.44c19.774 0 34.82 17.758 31.56 37.26l-49.66 298c14.26 11.74 23.88 30.54 23.88 48.74 0 20.58-10.348 38.060-25.44 49.78 8.504 35.52 25.76 67.64 49.88 94.060l381.2-136.46c27.46-9.82 57.4-9.82 84.86 0l565.4 202.4c19.3 7.020 32.1 25.42 32.1 46.22s-12.8 39.2-33.8 46.2zM702.2 331.2c-18.8-7.4-40.4-11.2-62.2-11.2-21.84 0-43.38 3.734-64 11.11l-290.4 103.89-29.6-285.6c0-82.6 170.2-149.4 384-149.4 210.2 0 384 66.8 384 149.34l-29.56 285.8-292.24-103.94z" />
<glyph unicode="&#xe928;" glyph-name="gift" d="M304 960h4.4c63.8 0 123-33.82 155.4-88.9l48.2-82.020 48.2 82.020c32.4 55.080 91.6 88.9 155.4 88.9h4.4c97.2 0 176-78.8 176-176 0-28.8-7-54.2-19.2-80h83.2c35.4 0 64-28.6 64-64v-128c0-35.4-28.6-64-64-64h-896c-35.34 0-64 28.6-64 64v128c0 35.4 28.66 64 64 64h83.2c-12.28 25.8-19.2 51.2-19.2 80 0 97.2 78.8 176 176 176zM381 822.44c-15.2 25.74-42.8 41.56-72.6 41.56h-4.4c-44.2 0-80-35.82-80-80 0-44.2 35.8-80 80-80h146.6l-69.6 118.44zM720 864h-4.4c-29.8 0-57.4-15.82-72.6-41.56l-69.6-118.44h146.6c44.2 0 80 35.8 80 80 0 44.18-35.8 80-80 80v0zM64 384h384v-448h-288c-53.020 0-96 43-96 96v352zM576-64v448h384v-352c0-53-43-96-96-96h-288z" />
<glyph unicode="&#xe929;" glyph-name="cookie-bite" d="M989.2 448.2c-131.26 1.641-237.2 108.28-237.2 239.8-131.48 0-238.2 105.94-239.6 237.2-51.32 7.734-103.6-0.469-149.54-24.14l-129.46-65.88c-46.7-23.9-84.68-61.88-108.58-108.58l-65.62-129c-23.9-46.88-32.34-99.84-24.14-151.88l22.74-142.96c8.204-51.8 32.58-99.6 69.62-136.64l102.72-102.78c37.060-37.14 84.46-61.34 136.26-69.54l143.68-22.74c51.8-8.202 104.54 0.234 151.18 23.9l129.62 66.1c46.64 23.68 84.62 61.64 108.28 108.28l65.86 129.14c23.58 46.12 31.98 98.72 24.18 149.72zM352 225.8c-35.24 0-64 28.74-64 62.2s28.76 62.2 64 62.2 64-28.74 64-62.2-28.8-62.2-64-62.2zM416 544c-35.24 0-64 28.74-64 62.2s28.76 62.2 64 62.2 64-28.74 64-62.2-28.8-62.2-64-62.2zM736 289.8c-35.24 0-64 28.74-64 62.2s28.76 62.2 64 62.2 64-28.74 64-62.2-28.8-62.2-64-62.2z" />
<glyph unicode="&#xe92b;" glyph-name="chevron-up" horiz-adv-x="896" d="M832 256c-16.376 0-32.76 6.25-45.24 18.75l-338.76 338.65-338.8-338.8c-25-25-65.5-25-90.5 0s-25 65.5 0 90.5l384 384c25 25 65.5 25 90.5 0l384-384c25-25 25-65.5 0-90.5-12.4-12.4-28.8-18.6-45.2-18.6z" />
<glyph unicode="&#xe92c;" glyph-name="angle-down" horiz-adv-x="768" d="M384 192c-16.376 0-32.76 6.25-45.24 18.75l-320 320c-25 25-25 65.5 0 90.5s65.5 25 90.5 0l274.74-274.85 274.8 274.8c25 25 65.5 25 90.5 0s25-65.5 0-90.5l-320-320c-12.5-12.5-28.9-18.7-45.3-18.7z" />
<glyph unicode="&#xe92d;" glyph-name="bars" horiz-adv-x="896" d="M0 768c0 35.34 28.66 64 64 64h768c35.4 0 64-28.66 64-64 0-35.4-28.6-64-64-64h-768c-35.34 0-64 28.6-64 64zM0 448c0 35.4 28.66 64 64 64h768c35.4 0 64-28.6 64-64s-28.6-64-64-64h-768c-35.34 0-64 28.6-64 64zM832 64h-768c-35.34 0-64 28.6-64 64s28.66 64 64 64h768c35.4 0 64-28.6 64-64s-28.6-64-64-64z" />
<glyph unicode="&#xe92e;" glyph-name="check" horiz-adv-x="896" d="M877.2 749.2c25-25 25-65.4 0-90.4l-512-512c-25-25-65.4-25-90.4 0l-256.056 256c-24.992 25-24.992 65.4 0 90.4 24.996 25 65.516 25 90.516 0l208.94-210.6 468.6 466.6c25 25.040 65.4 25.040 90.4 0v0z" />
<glyph unicode="&#xe92f;" glyph-name="chevron-left" horiz-adv-x="640" d="M448 0c-16.376 0-32.76 6.25-45.24 18.75l-384 384c-25 25-25 65.5 0 90.5l384 384c25 25 65.5 25 90.5 0s25-65.5 0-90.5l-338.76-338.75 338.8-338.8c25-25 25-65.5 0-90.5-12.5-12.5-28.9-18.7-45.3-18.7z" />
<glyph unicode="&#xe930;" glyph-name="chevron-right" horiz-adv-x="640" d="M192 0c-16.376 0-32.76 6.25-45.24 18.75-25 25-25 65.5 0 90.5l338.84 338.75-338.84 338.74c-25 25-25 65.5 0 90.5s65.5 25 90.5 0l384-384c25-25 25-65.5 0-90.5l-384-384c-12.46-12.54-28.86-18.74-45.26-18.74z" />
<glyph unicode="&#xe931;" glyph-name="comments" horiz-adv-x="1280" d="M832 608c0 194.4-186.2 352-416 352s-416-157.6-416-352c0-79.14 31.24-151.92 83.34-210.8-32.78-65.52-78.46-114.64-79.18-115.36-4.2-4.41-5.34-10.95-2.882-16.708 2.522-5.732 7.926-9.132 14.042-9.132 76.7 0 141.52 22.24 191.48 48.080 61.6-30.28 132.8-48.080 209.2-48.080 229.8 0 416 157.6 416 352zM1199.2 72.6c50.4 59.6 80.8 134.2 80.8 215.4 0 194.4-172 352-384 352-0.629 0-1.238-0.082-1.867-0.086 0.867-10.514 1.867-21.114 1.867-31.914 0-197.24-159.36-362.4-372.2-405 41.6-153.2 190.4-267 372.2-267 67.38 0 130.64 16.016 185.7 43.96 48.7-23.96 110.5-43.96 182.9-43.96 6.118 0 11.52 3.45 14.040 9.21 2.458 5.758 1.316 12.296-2.882 16.708-0.558 0.682-43.958 47.482-76.558 110.682z" />
<glyph unicode="&#xe932;" glyph-name="flag" d="M128-32c0-17.6-14.5-32-32-32h-64c-17.5 0-32 14.4-32 32v928c0 35.5 28.5 64 64 64s64-28.5 64-64v-928zM952.6 960c-12.73 0-26.020-2.7-38.68-8.466-91.38-41.72-159.12-55.88-215.6-55.88-119.92 0-189.62 63.72-327.8 63.74-48.72-0.005-107.32-9.128-178.52-30.894v-701c64 19.968 119.74 28.2 169.7 28.2 147.26 0 249.8-63.56 397.2-63.56 63.82 0 136.040 11.942 222.2 46.18 27.1 9.88 42.9 32.88 42.9 57.48v602.74c0 39.26-33.4 61.46-71.4 61.46z" />
<glyph unicode="&#xe933;" glyph-name="lightbulb" horiz-adv-x="768" d="M224.2 51.4c0-12.594 3.632-24.88 10.568-35.38l34.28-51.38c10.5-15.75 34.34-28.56 53.28-28.56h123.34c18.876 0 42.72 12.802 53.22 28.56l34.16 51.36c5.876 8.876 10.696 24.74 10.696 35.4l0.256 78.4h-320l0.2-78.4zM382.8 959.974c-203.92-0.625-350.8-165.914-350.8-350.174 0-88.76 32.88-169.68 87.12-231.6 33.060-37.68 84.68-116.46 104.44-182.9 0.063-0.5 0.188-1.033 0.25-1.565h320.4c0.063 0.531 0.188 1.033 0.25 1.565 19.75 66.44 71.38 145.22 104.44 182.9 54.3 60.2 87.1 141 87.1 231.6 0 192.98-158.2 350.767-353.2 350.174zM384 767.98c-88.26 0-160-71.78-160-158.2 0-19.38-14.4-33.78-32-33.78s-32 14.4-32 32c0 123.52 100.5 222.2 224 222.2 17.688 0 32-14.318 32-32s-14.4-30.22-32-30.22z" />
<glyph unicode="&#xe934;" glyph-name="circle-info" d="M512 960c-282.8 0-512-229.2-512-512s229.2-512 512-512 512 229.2 512 512-229.2 512-512 512zM512 704c35.34 0 64-28.66 64-64s-28.66-64-64-64-64 28.6-64 64c0 35.4 28.6 64 64 64zM592 192h-160c-26.4 0-48 21.4-48 48s21.5 48 48 48h32v128h-16c-26.5 0-48 21.5-48 48s21.6 48 48 48h64c26.5 0 48-21.5 48-48v-176h32c26.5 0 48-21.5 48-48s-21.4-48-48-48z" />
<glyph unicode="&#xe935;" glyph-name="heart-o" d="M488 792l22.2-24 24 23.96c67 65.3 159.8 95.020 251 79.84 137.8-22.96 238.8-142.2 238.8-282v-11.6c0-83-34.4-162.4-95.2-219l-361.4-337.4c-15-14-34.8-21.8-55.4-21.8s-40.4 7.8-55.4 21.8l-361.42 337.4c-60.72 56.6-95.18 136-95.18 219v11.6c0 139.8 101.040 259.040 238.8 282 89.4 15.18 184-14.54 249.2-79.8-1.8 0 0-0.020 0 0v0zM510.2 632.2l-90 93.6c-43.4 41.64-105 61.4-165.6 51.32-91.5-15.26-158.6-94.52-158.6-187.32v-11.6c0-56.4 23.42-110.4 64.68-148.8l351.32-328 351.4 328c41.2 38.4 64.6 92.4 64.6 148.8v11.6c0 92.8-67.2 172.060-158.6 187.32-60.6 10.080-122.2-9.68-165.6-51.32l-93.6-93.6z" />
<glyph unicode="&#xe936;" glyph-name="heart" d="M0 578.2v11.6c0 139.8 101.040 259.040 238.8 282 89.4 15.18 184-14.54 249.2-79.84l24-23.96 22.2 23.96c67 65.3 159.8 95.020 251 79.84 137.8-22.96 238.8-142.2 238.8-282v-11.6c0-83-34.4-162.4-95.2-219l-361.4-337.4c-15-14-34.8-21.8-55.4-21.8s-40.4 7.8-55.4 21.8l-361.42 337.4c-60.72 56.6-95.179 136-95.179 219h-0.001z" />
<glyph unicode="&#xe937;" glyph-name="book-open" horiz-adv-x="1152" d="M288.6 895.92c-74.8 1.5-161.2-18.8-251.4-58.5-22.84-10.052-37.2-33.34-37.2-58.3v-715.2c0-23.1 23.98-39.1 44.9-29.3 252.6 118.28 439.6-22 447.6-28.020 5.7-4.4 12.5-6.6 19.5-6.6 24.8 0 32 22.76 32 31.96v767.96c0 10.406-5.062 20.16-13.562 26.16-3.838 2.76-97.038 67.22-241.838 69.84zM1114.8 837.42c-90.22 39.58-176.96 59.22-251.4 58.52-144.88-2.624-236.2-67.1-241.8-69.84-8.6-6.020-13.6-15.76-13.6-26.18v-766.2c0-10.52 7-33.72 32-33.72 6.968 0 13.876 2.25 19.562 6.656 7.85 6.036 194.88 146.32 447.6 28 20.92-9.792 44.9 6.21 44.9 29.3v715.2c-1.862 24.904-14.462 48.224-37.262 58.264z" />
<glyph unicode="&#xe938;" glyph-name="pen-to-square" d="M980.6 879.2c43.8-43.74 43.8-114.66 0-158.4l-60-60.2-196 195.96 60.2 60.12c43.8 43.747 114.6 43.747 158.4 0l37.4-37.48zM344.8 476.6l334.6 334.72 196-195.92-334.8-334.6c-12.2-12.4-27.2-21.6-43.8-27.2l-177.6-59.2c-19-5.6-36.2-1.2-49.2 13.4-12.8 11.2-17.2 30.2-11.6 47.4l59.2 177.6c5.6 16.6 14.8 31.6 27.2 43.8v0zM384 833.8c35.4 0 64-30.46 64-64 0-37.2-28.6-64-64-64h-192c-35.34 0-64-30.4-64-64v-513.8c0-35.4 28.66-64 64-64h512c35.4 0 64 28.6 64 64v193.8c0 33.6 28.6 64 64 64s64-30.4 64-64v-193.8c0-106-86-192-192-192h-512c-106.040 0-192 86-192 192v513.8c0 106 85.96 192 192 192h192z" />
<glyph unicode="&#xe939;" glyph-name="music" d="M1022.2 225.8c0-88.36-85.96-160-190.2-160s-190.2 71.64-190.2 158.2c0 88.36 85.96 158.2 190.2 158.2 22.56 0 43.9-3.84 64.020-9.796v291.396l-512.020-151.8-0.005-416.2c-1.795-88.2-85.995-159.8-193.795-159.8s-190.2 71.6-190.2 160c0 88.36 85.96 158.2 190.2 158.2 22.56 0 43.9-3.84 64-9.796v462.596c0 25.94 20.12 53.26 44.82 61.040l638.2 188.98c6.98 1.657 17.38 2.98 22.78 2.98 35.32 0 63.94-28.68 64-63.98l-1.8-670.22z" />
<glyph unicode="&#xe93a;" glyph-name="paintbrush" horiz-adv-x="1152" d="M448 433.4c0.4 60 28.8 116.2 76.8 152.2l473.4 355.19c37.2 27.916 89 25.14 123.2-6.59 34-31.72 40.2-83.28 15-122.34l-323.4-500.060c-30.4-47.2-79.8-78.2-134.4-86l-230.6 207.6zM640 160c0-123.8-100.2-224-224-224h-288c-35.34 0-64 28.6-64 64s28.66 64 64 64h9.62c35.26 0 59.18 37.8 55.56 72.8-0.78 7.6-1.18 15.4-1.18 23.2 0 120.8 95.8 219.4 215.4 223.8l232.2-208.8c0.2-3.2 0.4-10 0.4-15v0z" />
</font>
</defs>
</svg>
